<?xml version='1.0' encoding='utf-8'?>
<svg xmlns="http://www.w3.org/2000/svg" width="900" height="420"><text x="20" y="40" fill="#333" font_size="24" font_family="Arial">Palette Pastello con Opposti</text><rect x="20" y="80" width="200" height="50" fill="#F8C8DC" stroke="#00000020" /><text x="240" y="110" fill="#333" font_size="14" font_family="Arial">Rosa cipria (#F8C8DC)</text><rect x="500" y="80" width="200" height="50" fill="#C8F8E4" stroke="#00000020" /><text x="720" y="110" fill="#333" font_size="14" font_family="Arial">Verde salvia chiaro (#C8F8E4)</text><rect x="20" y="160" width="200" height="50" fill="#A8D8EA" stroke="#00000020" /><text x="240" y="190" fill="#333" font_size="14" font_family="Arial">Azzurro polvere (#A8D8EA)</text><rect x="500" y="160" width="200" height="50" fill="#EAB8A8" stroke="#00000020" /><text x="720" y="190" fill="#333" font_size="14" font_family="Arial">Pesca tenue (#EAB8A8)</text><rect x="20" y="240" width="200" height="50" fill="#B8E8C8" stroke="#00000020" /><text x="240" y="270" fill="#333" font_size="14" font_family="Arial">Verde menta (#B8E8C8)</text><rect x="500" y="240" width="200" height="50" fill="#E8B8D8" stroke="#00000020" /><text x="720" y="270" fill="#333" font_size="14" font_family="Arial">Rosa pesca (#E8B8D8)</text><rect x="20" y="320" width="200" height="50" fill="#CBB7F0" stroke="#00000020" /><text x="240" y="350" fill="#333" font_size="14" font_family="Arial">Lavanda chiaro (#CBB7F0)</text><rect x="500" y="320" width="200" height="50" fill="#F0E8B7" stroke="#00000020" /><text x="720" y="350" fill="#333" font_size="14" font_family="Arial">Giallo pastello (#F0E8B7)</text><rect x="20" y="400" width="200" height="50" fill="#FFF5BA" stroke="#00000020" /><text x="240" y="430" fill="#333" font_size="14" font_family="Arial">Giallo crema (#FFF5BA)</text><rect x="500" y="400" width="200" height="50" fill="#BAC4FF" stroke="#00000020" /><text x="720" y="430" fill="#333" font_size="14" font_family="Arial">Azzurro tenue (#BAC4FF)</text><rect x="20" y="480" width="200" height="50" fill="#FFD6A5" stroke="#00000020" /><text x="240" y="510" fill="#333" font_size="14" font_family="Arial">Pesca pastello (#FFD6A5)</text><rect x="500" y="480" width="200" height="50" fill="#A5C4FF" stroke="#00000020" /><text x="720" y="510" fill="#333" font_size="14" font_family="Arial">Azzurro-grigio (#A5C4FF)</text></svg>